<svg width="1440" height="321" viewBox="0 0 1440 321" fill="none" xmlns="http://www.w3.org/2000/svg">
<g clip-path="url(#clip0_209_221)">
<rect width="1440" height="321" fill="#000805"/>
<g filter="url(#filter0_f_209_221)">
<ellipse cx="-177" cy="806" rx="341" ry="354" fill="#165B41"/>
</g>
<g clip-path="url(#clip1_209_221)">
<path d="M653.87 128.944H663.24V152.678H644.502V138.333C644.502 135.843 645.49 133.455 647.246 131.694C649.003 129.934 651.386 128.944 653.87 128.944Z" fill="#101614" stroke="#101614"/>
<path d="M673.607 109.167H682.977V127.944H664.239V118.555C664.239 116.065 665.227 113.677 666.983 111.917C668.74 110.156 671.123 109.167 673.607 109.167Z" fill="#101614" stroke="#101614"/>
<path d="M682.977 193.234V216.945H673.607C671.123 216.945 668.74 215.955 666.983 214.195C665.226 212.434 664.239 210.046 664.239 207.555V193.234H682.977Z" fill="#101614" stroke="#101614"/>
<path d="M663.239 173.456V192.233H653.778C651.294 192.233 648.911 191.245 647.154 189.484C645.397 187.724 644.41 185.335 644.41 182.845V173.456H663.239Z" fill="#101614" stroke="#101614"/>
<path d="M470.794 98.3472H452.056V88.9575C452.056 86.4674 453.044 84.0794 454.8 82.3188C456.557 80.5583 458.94 79.5689 461.424 79.5688H461.427L470.794 79.5249V98.3472Z" fill="#101614" stroke="#101614"/>
<path d="M411.583 198.167V207.555C411.583 208.789 411.341 210.01 410.87 211.149C410.399 212.288 409.708 213.323 408.839 214.195C407.969 215.067 406.936 215.758 405.799 216.23C404.663 216.702 403.444 216.944 402.214 216.944H352.872C350.387 216.944 348.005 215.956 346.248 214.195C344.491 212.434 343.504 210.046 343.504 207.555V198.167H411.583Z" fill="#101614" stroke="#101614"/>
<path d="M421.928 109.167C423.158 109.167 424.377 109.41 425.513 109.882C426.65 110.353 427.682 111.045 428.552 111.917C429.422 112.788 430.113 113.824 430.584 114.963C431.054 116.102 431.296 117.323 431.296 118.555V187.709C431.296 188.942 431.054 190.163 430.584 191.302C430.113 192.441 429.422 193.477 428.552 194.348C427.682 195.22 426.65 195.911 425.513 196.383C424.377 196.854 423.158 197.097 421.928 197.097H412.583V109.167H421.928Z" fill="#101614" stroke="#101614"/>
<path d="M461.424 109.167H470.794V207.555C470.794 208.789 470.551 210.01 470.08 211.149C469.609 212.288 468.918 213.323 468.049 214.195C467.179 215.067 466.146 215.759 465.009 216.23C463.873 216.702 462.655 216.944 461.424 216.944H452.056V118.555C452.056 116.065 453.044 113.677 454.8 111.917C456.557 110.156 458.94 109.167 461.424 109.167Z" fill="#101614" stroke="#101614"/>
<path d="M614.397 89.458H623.766V153.654L624.265 153.655L643.502 153.677V172.456H623.766V207.532C623.766 208.765 623.523 209.987 623.052 211.126C622.581 212.265 621.891 213.3 621.021 214.172C620.151 215.044 619.118 215.735 617.982 216.207C616.845 216.679 615.627 216.921 614.397 216.921H605.029V98.8467C605.029 96.3565 606.016 93.9686 607.773 92.208C609.53 90.4474 611.913 89.4581 614.397 89.458Z" fill="#101614" stroke="#101614"/>
<path d="M342.504 197.167H333.135C331.905 197.167 330.686 196.924 329.55 196.452C328.413 195.98 327.381 195.288 326.511 194.417C325.641 193.545 324.95 192.51 324.48 191.371C324.009 190.232 323.767 189.011 323.767 187.778V118.625C323.767 117.392 324.009 116.17 324.48 115.031C324.95 113.892 325.641 112.857 326.511 111.985C327.381 111.113 328.413 110.422 329.55 109.95C330.686 109.478 331.905 109.236 333.135 109.236H333.139L342.504 109.17V197.167Z" fill="#101614" stroke="#101614"/>
<path d="M500.898 128.944H510.267V197.098H500.898C499.668 197.098 498.45 196.855 497.313 196.383C496.177 195.911 495.144 195.219 494.274 194.348C493.404 193.476 492.714 192.441 492.243 191.302C491.772 190.163 491.53 188.941 491.53 187.708V138.333C491.53 137.1 491.772 135.879 492.243 134.74C492.714 133.601 493.404 132.566 494.274 131.694C495.144 130.823 496.177 130.131 497.313 129.659C498.45 129.187 499.668 128.944 500.898 128.944Z" fill="#101614" stroke="#101614"/>
<path d="M584.269 198.167V207.555C584.269 210.046 583.282 212.434 581.525 214.195C579.768 215.956 577.385 216.944 574.901 216.944H520.635C518.151 216.944 515.768 215.956 514.011 214.195C512.254 212.434 511.267 210.046 511.267 207.555V198.167H584.269Z" fill="#101614" stroke="#101614"/>
<path d="M520.635 109.167H574.901C577.385 109.167 579.768 110.156 581.525 111.917C583.282 113.677 584.269 116.065 584.269 118.555V127.944H511.267V118.555C511.267 116.065 512.254 113.677 514.011 111.917C515.658 110.266 517.856 109.293 520.171 109.178L520.635 109.167Z" fill="#101614" stroke="#101614"/>
<path d="M293.596 129.013C294.826 129.005 296.046 129.239 297.186 129.703C298.325 130.167 299.363 130.851 300.239 131.717C301.115 132.582 301.812 133.613 302.291 134.749C302.77 135.885 303.021 137.104 303.029 138.337V247.111C303.029 248.344 302.787 249.566 302.316 250.705C301.846 251.844 301.155 252.879 300.285 253.751C299.415 254.622 298.383 255.314 297.246 255.786C296.11 256.258 294.891 256.5 293.661 256.5H284.293V216.944H224.582C222.098 216.944 219.715 215.956 217.958 214.195C216.201 212.434 215.214 210.046 215.214 207.555V198.167H284.224V129.013H293.596Z" fill="#101614" stroke="#101614"/>
<path d="M224.651 109.167H273.99L274.452 109.181C276.756 109.311 278.938 110.29 280.572 111.939C282.315 113.698 283.293 116.076 283.293 118.555V127.944H215.283V118.555C215.283 116.065 216.27 113.677 218.027 111.917C219.784 110.156 222.167 109.167 224.651 109.167Z" fill="#101614" stroke="#101614"/>
<path d="M204.868 128.944H214.214V197.098H204.868C202.384 197.098 200.001 196.108 198.244 194.348C196.487 192.587 195.5 190.198 195.5 187.708V138.333C195.5 135.843 196.487 133.455 198.244 131.694C200.001 129.934 202.384 128.944 204.868 128.944Z" fill="#101614" stroke="#101614"/>
<path d="M768.358 79.5H777.726V207.556C777.726 210.046 776.739 212.434 774.982 214.194C773.225 215.955 770.843 216.944 768.358 216.944H758.99V88.8887C758.99 86.3984 759.977 84.0106 761.734 82.25C763.491 80.4894 765.874 79.5001 768.358 79.5Z" fill="#101614" stroke="#101614"/>
<path d="M1103.17 109.167H1117.49V127.944H1093.8V118.555C1093.8 116.065 1094.79 113.677 1096.55 111.917C1098.3 110.156 1100.69 109.167 1103.17 109.167Z" fill="#101614" stroke="#101614"/>
<path d="M1063.72 109.167H1073.09V138.334H1074.09C1074.09 135.843 1075.08 133.455 1076.83 131.694C1078.59 129.934 1080.97 128.944 1083.46 128.944H1092.8V147.722H1073.09V216.876H1063.72C1061.24 216.876 1058.85 215.886 1057.1 214.126C1055.34 212.365 1054.35 209.976 1054.35 207.486V118.555C1054.35 116.065 1055.34 113.677 1057.1 111.917C1058.85 110.156 1061.24 109.167 1063.72 109.167Z" fill="#101614" stroke="#101614"/>
<path d="M1236.15 128.944L1236.62 128.958C1238.92 129.083 1241.11 130.06 1242.75 131.71C1244.5 133.469 1245.48 135.851 1245.48 138.334V207.486C1245.48 209.976 1244.49 212.365 1242.73 214.126C1240.98 215.886 1238.59 216.876 1236.11 216.876H1226.76V128.944H1236.15ZM1167.12 109.167H1216.46L1216.93 109.179C1219.24 109.3 1221.44 110.273 1223.08 111.923C1224.84 113.682 1225.83 116.068 1225.83 118.556V127.944H1157.75V118.555C1157.75 116.065 1158.74 113.677 1160.5 111.917C1162.14 110.266 1164.34 109.293 1166.66 109.178L1167.12 109.167Z" fill="#101614" stroke="#101614"/>
<path d="M1137.95 138.4C1137.94 137.162 1138.18 135.935 1138.65 134.789C1139.12 133.644 1139.8 132.602 1140.67 131.724C1141.54 130.845 1142.58 130.148 1143.72 129.671C1144.72 129.254 1145.78 129.013 1146.85 128.957L1147.32 128.944H1156.68V216.944H1147.32C1144.83 216.939 1142.45 215.948 1140.7 214.188C1139.05 212.539 1138.08 210.339 1137.96 208.02L1137.95 207.555V138.4Z" fill="#101614" stroke="#101614"/>
<path d="M890.972 198.167V207.555C890.972 210.046 889.985 212.434 888.228 214.195C886.471 215.956 884.088 216.944 881.604 216.944H827.339C824.854 216.944 822.472 215.956 820.715 214.195C818.958 212.434 817.971 210.046 817.971 207.555V198.167H890.972Z" fill="#101614" stroke="#101614"/>
<path d="M827.408 109.167H876.681C879.166 109.167 881.548 110.156 883.305 111.917C885.062 113.677 886.049 116.065 886.049 118.555V127.944H818.04V118.555C818.04 116.065 819.027 113.677 820.784 111.917C822.541 110.156 824.924 109.167 827.408 109.167Z" fill="#101614" stroke="#101614"/>
<path d="M807.602 128.944H816.97V158.611H886.981V128.944H896.353C897.588 128.936 898.813 129.173 899.957 129.641C901.101 130.108 902.142 130.798 903.019 131.671C903.896 132.543 904.592 133.581 905.067 134.725C905.542 135.868 905.786 137.095 905.786 138.333V168C905.786 170.49 904.799 172.879 903.042 174.64C901.285 176.4 898.903 177.389 896.418 177.389H816.97V197.167H807.602C805.118 197.167 802.735 196.178 800.978 194.417C799.221 192.656 798.234 190.269 798.234 187.778V138.333L798.245 137.868C798.36 135.547 799.331 133.345 800.978 131.694C802.735 129.934 805.118 128.944 807.602 128.944Z" fill="#101614" stroke="#101614"/>
<path d="M1014.06 198.167V207.555C1014.06 210.046 1013.08 212.434 1011.32 214.195C1009.56 215.956 1007.18 216.944 1004.69 216.944H955.421C952.937 216.944 950.554 215.956 948.797 214.195C947.04 212.434 946.053 210.046 946.053 207.555V198.167H1014.06Z" fill="#101614" stroke="#101614"/>
<path d="M950.476 109.167H1004.76C1007.25 109.167 1009.63 110.156 1011.39 111.917C1013.14 113.677 1014.13 116.065 1014.13 118.555V127.944H941.108V118.555C941.108 116.065 942.095 113.677 943.852 111.917C945.609 110.156 947.991 109.167 950.476 109.167Z" fill="#101614" stroke="#101614"/>
<path d="M1033.85 128.944V187.779C1033.85 189.011 1033.61 190.231 1033.14 191.37C1032.67 192.509 1031.98 193.544 1031.12 194.416C1030.25 195.288 1029.22 195.98 1028.08 196.452C1026.95 196.924 1025.73 197.167 1024.5 197.167H1015.13V167.5H945.123V197.167H935.754C933.269 197.167 930.886 196.178 929.13 194.417C927.373 192.656 926.385 190.268 926.385 187.777V158.111L926.397 157.646C926.512 155.325 927.482 153.122 929.13 151.472C930.886 149.711 933.269 148.722 935.754 148.722H1015.2V128.944H1033.85Z" fill="#101614" stroke="#101614"/>
</g>
</g>
<defs>
<filter id="filter0_f_209_221" x="-818" y="152" width="1282" height="1308" filterUnits="userSpaceOnUse" color-interpolation-filters="sRGB">
<feFlood flood-opacity="0" result="BackgroundImageFix"/>
<feBlend mode="normal" in="SourceGraphic" in2="BackgroundImageFix" result="shape"/>
<feGaussianBlur stdDeviation="150" result="effect1_foregroundBlur_209_221"/>
</filter>
<clipPath id="clip0_209_221">
<rect width="1440" height="321" fill="white"/>
</clipPath>
<clipPath id="clip1_209_221">
<rect width="1051" height="178" fill="white" transform="translate(195 80)"/>
</clipPath>
</defs>
</svg>
